# Blender v2.72 (sub 0) OBJ File: 'fence.blend'
# www.blender.org
mtllib fence.mtl
o Cube.002_Cube.007
v -0.183875 3.960514 -4.816125
v -0.183875 3.960514 -5.183875
v 0.183875 3.960514 -5.183875
v 0.183875 3.960514 -4.816125
v -0.183875 0.018633 -4.816125
v -0.183875 0.018633 -5.183875
v 0.183875 0.018633 -5.183875
v 0.183875 0.018633 -4.816125
v 0.171484 1.040620 4.986927
v 0.171484 1.227225 -4.996377
v 0.281739 1.227225 -4.996377
v 0.281739 1.040620 4.986927
v 0.171484 1.546155 4.996377
v 0.171484 1.732759 -4.986928
v 0.281739 1.732759 -4.986928
v 0.281739 1.546155 4.996377
v 0.292386 1.453122 4.850186
v 0.176371 2.871677 -4.980992
v 0.286626 2.871677 -4.980992
v 0.402640 1.453122 4.850186
v 0.292386 1.953769 4.920945
v 0.176371 3.377005 -4.998244
v 0.286626 3.377005 -4.998244
v 0.402640 1.953769 4.920945
v -0.183875 3.960514 5.183875
v -0.183875 3.960514 4.816125
v 0.183875 3.960514 4.816125
v 0.183875 3.960514 5.183875
v -0.183875 0.018633 5.183875
v -0.183875 0.018633 4.816125
v 0.183875 0.018633 4.816125
v 0.183875 0.018633 5.183875
v -0.183875 3.960514 -14.815240
v -0.183875 3.960514 -15.182989
v 0.183875 3.960514 -15.182989
v 0.183875 3.960514 -14.815240
v -0.183875 0.018633 -14.815240
v -0.183875 0.018633 -15.182989
v 0.183875 0.018633 -15.182989
v 0.183875 0.018633 -14.815240
v 0.171484 1.040620 -5.012187
v 0.171484 1.307979 -14.995491
v 0.281739 1.307979 -14.995491
v 0.281739 1.040620 -5.012187
v 0.171484 1.546155 -5.002738
v 0.171484 1.813514 -14.986042
v 0.281739 1.813514 -14.986042
v 0.281739 1.546155 -5.002738
v 0.176371 3.113966 -5.000871
v 0.176371 3.031333 -14.980106
v 0.286626 3.031333 -14.980106
v 0.286626 3.113966 -5.000871
v 0.176371 3.619294 -5.018123
v 0.176371 3.536661 -14.997358
v 0.286626 3.536661 -14.997358
v 0.286626 3.619294 -5.018123
v -0.183875 3.960514 -4.815239
v -0.183875 3.960514 -5.182989
v 0.183875 3.960514 -5.182989
v 0.183875 3.960514 -4.815239
v -0.183875 0.018633 -4.815239
v -0.183875 0.018633 -5.182989
v 0.183875 0.018633 -5.182989
v 0.183875 0.018633 -4.815239
v -0.183875 3.960514 -24.814354
v -0.183875 3.960514 -25.182104
v 0.183875 3.960514 -25.182104
v 0.183875 3.960514 -24.814354
v -0.183875 0.018633 -24.814354
v -0.183875 0.018633 -25.182104
v 0.183875 0.018633 -25.182104
v 0.183875 0.018633 -24.814354
v 0.171484 1.040620 -15.011302
v 0.273343 0.053607 -25.074989
v 0.382375 0.069727 -25.077868
v 0.281739 1.040620 -15.011302
v 0.171484 1.546155 -15.001852
v 0.198657 0.552423 -25.110466
v 0.307689 0.568543 -25.113344
v 0.281739 1.546155 -15.001852
v 0.176371 3.212377 -14.999985
v 0.176371 2.871677 -24.979221
v 0.286626 2.871677 -24.979221
v 0.286626 3.212377 -14.999985
v 0.176371 3.717705 -15.017237
v 0.176371 3.377005 -24.996473
v 0.286626 3.377005 -24.996473
v 0.286626 3.717705 -15.017237
v -0.183875 3.960514 -14.814354
v -0.183875 3.960514 -15.182103
v 0.183875 3.960514 -15.182103
v 0.183875 3.960514 -14.814354
v -0.183875 0.018633 -14.814354
v -0.183875 0.018633 -15.182103
v 0.183875 0.018633 -15.182103
v 0.183875 0.018633 -14.814354
v -0.183875 3.960514 -34.813469
v -0.183875 3.960514 -35.181217
v 0.183875 3.960514 -35.181217
v 0.183875 3.960514 -34.813469
v -0.183875 0.018633 -34.813469
v -0.183875 0.018633 -35.181217
v 0.183875 0.018633 -35.181217
v 0.183875 0.018633 -34.813469
v 0.171484 1.040620 -25.010416
v 0.171484 0.801414 -34.993721
v 0.281739 0.801414 -34.993721
v 0.281739 1.040620 -25.010416
v 0.171484 1.546155 -25.000965
v 0.171484 1.306948 -34.984268
v 0.281739 1.306948 -34.984268
v 0.281739 1.546155 -25.000965
v 0.176371 2.519940 -24.999098
v 0.176371 2.628142 -34.978333
v 0.286626 2.628142 -34.978333
v 0.286626 2.519940 -24.999098
v 0.176371 3.025268 -25.016350
v 0.176371 3.133470 -34.995586
v 0.286626 3.133470 -34.995586
v 0.286626 3.025268 -25.016350
v -0.183875 3.960514 -24.813467
v -0.183875 3.960514 -25.181217
v 0.183875 3.960514 -25.181217
v 0.183875 3.960514 -24.813467
v -0.183875 0.018633 -24.813467
v -0.183875 0.018633 -25.181217
v 0.183875 0.018633 -25.181217
v 0.183875 0.018633 -24.813467
v -0.183875 3.960514 35.178493
v -0.183875 3.960514 34.810745
v 0.183875 3.960514 34.810745
v 0.183875 3.960514 35.178493
v -0.183875 0.018633 35.178493
v -0.183875 0.018633 34.810745
v 0.183875 0.018633 34.810745
v 0.183875 0.018633 35.178493
v 0.171484 1.040620 44.981548
v 0.171484 1.227225 34.998241
v 0.281739 1.227225 34.998241
v 0.281739 1.040620 44.981548
v 0.171484 1.546155 44.990997
v 0.171484 1.732759 35.007690
v 0.281739 1.732759 35.007690
v 0.281739 1.546155 44.990997
v -0.011624 2.102845 44.761429
v 1.299352 0.016668 34.954689
v 1.393595 0.073889 34.954689
v 0.098630 2.102845 44.761429
v -0.011624 2.603492 44.832188
v 1.037091 0.448612 34.937435
v 1.131334 0.505833 34.937435
v 0.098630 2.603492 44.832188
v -0.183875 3.960514 45.178497
v -0.183875 3.960514 44.810745
v 0.183875 3.960514 44.810745
v 0.183875 3.960514 45.178497
v -0.183875 0.018633 45.178497
v -0.183875 0.018633 44.810745
v 0.183875 0.018633 44.810745
v 0.183875 0.018633 45.178497
v -0.183875 3.960514 25.179379
v -0.183875 3.960514 24.811630
v 0.183875 3.960514 24.811630
v 0.183875 3.960514 25.179379
v -0.183875 0.018633 25.179379
v -0.183875 0.018633 24.811630
v 0.183875 0.018633 24.811630
v 0.183875 0.018633 25.179379
v 0.171484 1.040620 34.982433
v 0.171484 1.307979 24.999130
v 0.281739 1.307979 24.999130
v 0.281739 1.040620 34.982433
v 0.171484 1.546155 34.991882
v 0.171484 1.813514 25.008579
v 0.281739 1.813514 25.008579
v 0.281739 1.546155 34.991882
v 0.176371 3.113966 34.993752
v 0.176371 3.031333 25.014513
v 0.286626 3.031333 25.014513
v 0.286626 3.113966 34.993752
v 0.176371 3.619294 34.976498
v 0.176371 3.536661 24.997261
v 0.286626 3.536661 24.997261
v 0.286626 3.619294 34.976498
v -0.183875 3.960514 35.179382
v -0.183875 3.960514 34.811630
v 0.183875 3.960514 34.811630
v 0.183875 3.960514 35.179382
v -0.183875 0.018633 35.179382
v -0.183875 0.018633 34.811630
v 0.183875 0.018633 34.811630
v 0.183875 0.018633 35.179382
v -0.183875 3.960514 15.180265
v -0.183875 3.960514 14.812515
v 0.183875 3.960514 14.812515
v 0.183875 3.960514 15.180265
v -0.183875 0.018633 15.180265
v -0.183875 0.018633 14.812515
v 0.183875 0.018633 14.812515
v 0.183875 0.018633 15.180265
v 0.704083 0.050157 24.934227
v 0.643244 0.017702 15.130749
v 0.679635 0.107979 15.078962
v 0.692516 0.157689 24.912792
v 0.205352 0.011156 25.007717
v 0.186393 0.083434 14.924301
v 0.222784 0.173712 14.872515
v 0.193784 0.118688 24.986284
v 0.176371 3.212377 24.994635
v 0.176371 2.871677 15.015398
v 0.286626 2.871677 15.015398
v 0.286626 3.212377 24.994635
v 0.176371 3.717705 24.977383
v 0.176371 3.377005 14.998146
v 0.286626 3.377005 14.998146
v 0.286626 3.717705 24.977383
v -0.183875 3.960514 25.180265
v -0.183875 3.960514 24.812515
v 0.183875 3.960514 24.812515
v 0.183875 3.960514 25.180265
v -0.183875 0.018633 25.180265
v -0.183875 0.018633 24.812515
v 0.183875 0.018633 24.812515
v 0.183875 0.018633 25.180265
v -0.183875 3.960514 5.181152
v -0.183875 3.960514 4.813402
v 0.183875 3.960514 4.813402
v 0.183875 3.960514 5.181152
v -0.183875 0.018633 5.181152
v -0.183875 0.018633 4.813402
v 0.183875 0.018633 4.813402
v 0.183875 0.018633 5.181152
v 0.171484 1.040620 14.984203
v 0.171484 1.227225 5.000899
v 0.281739 1.227225 5.000899
v 0.281739 1.040620 14.984203
v 0.171484 1.546155 14.993654
v 0.171484 1.732759 5.010349
v 0.281739 1.732759 5.010349
v 0.281739 1.546155 14.993654
v 0.176371 3.212377 14.995522
v 0.176371 2.871677 5.016286
v 0.286626 2.871677 5.016286
v 0.286626 3.212377 14.995522
v 0.176371 3.717705 14.978270
v 0.176371 3.377005 4.999034
v 0.286626 3.377005 4.999034
v 0.286626 3.717705 14.978270
v -0.183875 3.960514 15.181152
v -0.183875 3.960514 14.813402
v 0.183875 3.960514 14.813402
v 0.183875 3.960514 15.181152
v -0.183875 0.018633 15.181152
v -0.183875 0.018633 14.813402
v 0.183875 0.018633 14.813402
v 0.183875 0.018633 15.181152
vt 0.043079 0.653455
vt 0.794346 0.653455
vt 0.794346 0.783679
vt 0.211303 0.523230
vt 0.962040 0.523230
vt 0.962040 0.653455
vt 0.043079 0.523230
vt 0.794346 0.523230
vt 0.962040 0.783679
vt 0.211303 0.783679
vt 0.211303 0.653455
vt 0.550155 0.688918
vt 0.405289 0.688918
vt 0.405289 0.588199
vt 0.385886 0.651748
vt 0.530753 0.651748
vt 0.530753 0.752467
vt -0.000670 0.668835
vt -0.001607 0.641607
vt 0.997086 0.641608
vt 0.477822 0.611614
vt 0.548248 0.611614
vt 0.548248 0.640389
vt 0.998023 0.657169
vt 0.997086 0.684397
vt -0.001607 0.684396
vt 0.618674 0.611614
vt 0.618674 0.640389
vt 0.997083 0.611134
vt 0.997083 0.674763
vt -0.001607 0.674763
vt -0.001607 0.756726
vt -0.001607 0.693097
vt 0.997083 0.693097
vt -0.001607 0.607208
vt 0.000104 0.579969
vt 0.998393 0.579969
vt 0.405916 0.611614
vt 0.477822 0.640389
vt 0.998393 0.713302
vt 0.000104 0.713302
vt -0.001607 0.686064
vt 0.334009 0.611614
vt 0.405916 0.640389
vt 0.996678 0.607208
vt 0.996678 0.670837
vt -0.001607 0.670838
vt 0.996678 0.734467
vt -0.001607 0.734467
vt 0.992118 0.785291
vt 0.309877 0.785291
vt 0.309877 0.667031
vt 0.688453 0.667031
vt 0.006694 0.667031
vt 0.006694 0.548772
vt 0.995657 0.668204
vt 0.313417 0.668204
vt 0.313417 0.549945
vt 0.688453 0.785291
vt 0.345283 0.629266
vt 0.523780 0.629266
vt 0.523780 0.729985
vt 0.382474 0.683357
vt 0.527340 0.683357
vt 0.527340 0.784075
vt -0.000670 0.657168
vt 0.998023 0.668835
vt -0.001607 0.611134
vt 0.996682 0.686063
vt 0.043079 0.783679
vt 0.550155 0.588199
vt 0.385886 0.752467
vt 0.997083 0.756726
vt 0.334009 0.640389
vt 0.992118 0.667031
vt 0.688453 0.548772
vt 0.995657 0.549945
vt 0.006694 0.785291
vt 0.345283 0.729985
vt 0.382474 0.784075
vn 1.000000 0.000000 0.000000
vn 0.000000 0.000000 1.000000
vn -1.000000 0.000000 0.000000
vn 0.000000 0.000000 -1.000000
vn 0.000000 -1.000000 0.000000
vn 0.000000 1.000000 0.000000
vn 0.000000 0.018700 -0.999800
vn 0.000000 -0.018700 0.999800
vn 0.000000 -0.999800 -0.018700
vn 0.000000 0.999800 0.018700
vn -0.999900 0.000400 0.011900
vn 0.000000 -0.034100 -0.999400
vn 0.999900 0.001600 -0.011500
vn 0.000000 -0.139900 0.990200
vn 0.000000 -0.989700 -0.142800
vn 0.000000 0.989900 0.142000
vn 0.000000 -0.999600 -0.026800
vn 0.000000 0.999600 0.026800
vn 0.000000 0.034100 0.999400
vn 0.000000 -1.000000 0.008300
vn 0.000000 1.000000 -0.008300
vn -0.989000 -0.147200 0.011800
vn -0.015500 -0.073200 -0.997200
vn 0.999900 -0.000200 0.010000
vn 0.148100 -0.984100 0.098000
vn -0.148100 0.984200 -0.097100
vn 0.000000 -0.999400 0.034100
vn 0.000000 0.999400 -0.034100
vn 0.000000 -0.999700 0.024000
vn 0.000000 0.999700 -0.024000
vn 0.000000 -0.999900 -0.010800
vn 0.000000 0.999900 0.010800
vn -0.855000 -0.518200 0.022200
vn 0.017700 -0.029200 -0.999400
vn 0.990700 -0.019000 0.134800
vn 0.503400 -0.829000 0.243600
vn -0.504500 0.831000 -0.234400
vn -0.144300 -0.989500 0.004200
vn 0.273300 -0.559200 -0.782700
vn -0.077200 0.997000 0.005200
vn 0.126800 0.207000 0.970100
vn 0.926600 -0.376100 -0.004500
vn -0.926600 0.376100 0.004400
vn -0.999900 -0.001600 0.011500
vn 0.999900 -0.000400 -0.011900
vn -0.999900 0.000200 -0.010100
vn 0.989000 0.147300 -0.011700
vn 0.000000 -0.995400 0.096000
vn 0.000000 0.995400 -0.096200
vn -0.990500 0.019300 -0.136500
vn 0.855000 0.518300 -0.020600
vn 0.000000 -0.979300 0.202600
vn 0.000000 0.978300 -0.207400
vn 0.076900 -0.997000 -0.007300
vn 0.144700 0.989500 -0.005200
vn 0.994300 0.106600 -0.001800
vn -0.994200 -0.107600 -0.003400
usemtl Material.002
s off
f 6/1/1 2/2/1 1/3/1
f 7/4/2 3/5/2 2/6/2
f 8/7/3 4/8/3 3/2/3
f 5/9/4 1/10/4 4/11/4
f 2/12/5 3/13/5 4/14/5
f 7/15/6 6/16/6 5/17/6
f 14/18/3 10/19/3 9/20/3
f 15/21/7 11/22/7 10/23/7
f 16/24/1 12/25/1 11/26/1
f 13/22/8 9/27/8 12/28/8
f 10/29/9 11/30/9 12/31/9
f 15/32/10 14/33/10 13/34/10
f 22/35/11 18/36/11 17/37/11
f 23/38/12 19/21/12 18/39/12
f 23/40/13 24/41/13 20/42/13
f 21/43/14 17/38/14 20/44/14
f 18/45/15 19/46/15 20/47/15
f 24/48/16 23/49/16 22/47/16
f 30/50/1 26/51/1 25/52/1
f 31/53/2 27/54/2 26/55/2
f 32/56/3 28/57/3 27/58/3
f 29/54/4 25/53/4 28/59/4
f 26/60/5 27/61/5 28/62/5
f 31/63/6 30/64/6 29/65/6
f 38/1/1 34/2/1 33/3/1
f 39/4/2 35/5/2 34/6/2
f 40/7/3 36/8/3 35/2/3
f 37/9/4 33/10/4 36/11/4
f 34/12/5 35/13/5 36/14/5
f 39/15/6 38/16/6 37/17/6
f 46/18/3 42/19/3 41/20/3
f 47/21/7 43/22/7 42/23/7
f 47/66/1 48/24/1 44/25/1
f 45/22/8 41/27/8 44/28/8
f 42/29/17 43/30/17 44/31/17
f 47/32/18 46/33/18 45/34/18
f 54/35/3 50/36/3 49/37/3
f 55/38/12 51/21/12 50/39/12
f 55/40/1 56/41/1 52/42/1
f 53/43/19 49/38/19 52/44/19
f 50/45/20 51/46/20 52/47/20
f 55/49/21 54/47/21 53/46/21
f 62/50/1 58/51/1 57/52/1
f 63/53/2 59/54/2 58/55/2
f 64/56/3 60/57/3 59/58/3
f 61/54/4 57/53/4 60/59/4
f 58/60/5 59/61/5 60/62/5
f 63/63/6 62/64/6 61/65/6
f 70/1/1 66/2/1 65/3/1
f 71/4/2 67/5/2 66/6/2
f 72/7/3 68/8/3 67/2/3
f 69/9/4 65/10/4 68/11/4
f 66/12/5 67/13/5 68/14/5
f 71/15/6 70/16/6 69/17/6
f 77/67/22 78/18/22 74/19/22
f 79/21/23 75/22/23 74/23/23
f 80/24/24 76/25/24 75/26/24
f 77/22/8 73/27/8 76/28/8
f 73/68/25 74/29/25 75/30/25
f 79/32/26 78/33/26 77/34/26
f 86/35/3 82/36/3 81/37/3
f 87/38/12 83/21/12 82/39/12
f 88/41/1 84/42/1 83/69/1
f 85/43/19 81/38/19 84/44/19
f 82/45/27 83/46/27 84/47/27
f 87/49/28 86/47/28 85/46/28
f 94/50/1 90/51/1 89/52/1
f 95/53/2 91/54/2 90/55/2
f 96/56/3 92/57/3 91/58/3
f 93/54/4 89/53/4 92/59/4
f 90/60/5 91/61/5 92/62/5
f 95/63/6 94/64/6 93/65/6
f 102/1/1 98/2/1 97/3/1
f 103/4/2 99/5/2 98/6/2
f 104/7/3 100/8/3 99/2/3
f 101/9/4 97/10/4 100/11/4
f 98/12/5 99/13/5 100/14/5
f 103/15/6 102/16/6 101/17/6
f 109/67/3 110/18/3 106/19/3
f 111/21/7 107/22/7 106/23/7
f 112/24/1 108/25/1 107/26/1
f 109/22/8 105/27/8 108/28/8
f 106/29/29 107/30/29 108/31/29
f 111/32/30 110/33/30 109/34/30
f 118/35/3 114/36/3 113/37/3
f 119/38/12 115/21/12 114/39/12
f 119/40/1 120/41/1 116/42/1
f 117/43/19 113/38/19 116/44/19
f 114/45/31 115/46/31 116/47/31
f 119/49/32 118/47/32 117/46/32
f 126/50/1 122/51/1 121/52/1
f 127/53/2 123/54/2 122/55/2
f 128/56/3 124/57/3 123/58/3
f 125/54/4 121/53/4 124/59/4
f 122/60/5 123/61/5 124/62/5
f 127/63/6 126/64/6 125/65/6
f 134/1/1 130/2/1 129/3/1
f 135/4/2 131/5/2 130/6/2
f 136/7/3 132/8/3 131/2/3
f 133/9/4 129/10/4 132/11/4
f 130/12/5 131/13/5 132/14/5
f 135/15/6 134/16/6 133/17/6
f 142/18/3 138/19/3 137/20/3
f 143/21/7 139/22/7 138/23/7
f 144/24/1 140/25/1 139/26/1
f 141/22/8 137/27/8 140/28/8
f 138/29/9 139/30/9 140/31/9
f 143/32/10 142/33/10 141/34/10
f 149/45/33 150/35/33 146/36/33
f 150/44/34 151/38/34 147/21/34
f 152/41/35 148/42/35 147/69/35
f 149/43/14 145/38/14 148/44/14
f 145/35/36 146/45/36 147/46/36
f 151/49/37 150/47/37 149/46/37
f 158/50/1 154/51/1 153/52/1
f 159/53/2 155/54/2 154/55/2
f 160/56/3 156/57/3 155/58/3
f 157/54/4 153/53/4 156/59/4
f 154/60/5 155/61/5 156/62/5
f 159/63/6 158/64/6 157/65/6
f 166/1/1 162/2/1 161/3/1
f 167/4/2 163/5/2 162/6/2
f 168/7/3 164/8/3 163/2/3
f 165/9/4 161/10/4 164/11/4
f 162/12/5 163/13/5 164/14/5
f 167/15/6 166/16/6 165/17/6
f 174/18/3 170/19/3 169/20/3
f 175/21/7 171/22/7 170/23/7
f 175/66/1 176/24/1 172/25/1
f 173/22/8 169/27/8 172/28/8
f 170/29/17 171/30/17 172/31/17
f 175/32/18 174/33/18 173/34/18
f 182/35/3 178/36/3 177/37/3
f 183/38/12 179/21/12 178/39/12
f 183/40/1 184/41/1 180/42/1
f 181/43/19 177/38/19 180/44/19
f 177/35/20 178/45/20 179/46/20
f 183/49/21 182/47/21 181/46/21
f 190/50/1 186/51/1 185/52/1
f 191/53/2 187/54/2 186/55/2
f 192/56/3 188/57/3 187/58/3
f 189/54/4 185/53/4 188/59/4
f 186/60/5 187/61/5 188/62/5
f 191/63/6 190/64/6 189/65/6
f 198/1/1 194/2/1 193/3/1
f 199/4/2 195/5/2 194/6/2
f 200/7/3 196/8/3 195/2/3
f 197/9/4 193/10/4 196/11/4
f 194/12/5 195/13/5 196/14/5
f 199/15/6 198/16/6 197/17/6
f 206/18/38 202/19/38 201/20/38
f 207/21/39 203/22/39 202/23/39
f 207/66/40 208/24/40 204/25/40
f 208/23/41 205/22/41 201/27/41
f 201/68/42 202/29/42 203/30/42
f 207/32/43 206/33/43 205/34/43
f 214/35/3 210/36/3 209/37/3
f 215/38/12 211/21/12 210/39/12
f 216/41/1 212/42/1 211/69/1
f 213/43/19 209/38/19 212/44/19
f 210/45/27 211/46/27 212/47/27
f 215/49/28 214/47/28 213/46/28
f 222/50/1 218/51/1 217/52/1
f 223/53/2 219/54/2 218/55/2
f 224/56/3 220/57/3 219/58/3
f 221/54/4 217/53/4 220/59/4
f 218/60/5 219/61/5 220/62/5
f 223/63/6 222/64/6 221/65/6
f 230/1/1 226/2/1 225/3/1
f 231/4/2 227/5/2 226/6/2
f 232/7/3 228/8/3 227/2/3
f 229/9/4 225/10/4 228/11/4
f 226/12/5 227/13/5 228/14/5
f 231/15/6 230/16/6 229/17/6
f 238/18/3 234/19/3 233/20/3
f 239/21/7 235/22/7 234/23/7
f 240/24/1 236/25/1 235/26/1
f 237/22/8 233/27/8 236/28/8
f 234/29/9 235/30/9 236/31/9
f 239/32/10 238/33/10 237/34/10
f 245/45/3 246/35/3 242/36/3
f 247/38/12 243/21/12 242/39/12
f 248/41/1 244/42/1 243/69/1
f 245/43/19 241/38/19 244/44/19
f 242/45/27 243/46/27 244/47/27
f 247/49/28 246/47/28 245/46/28
f 254/50/1 250/51/1 249/52/1
f 255/53/2 251/54/2 250/55/2
f 256/56/3 252/57/3 251/58/3
f 253/54/4 249/53/4 252/59/4
f 250/60/5 251/61/5 252/62/5
f 255/63/6 254/64/6 253/65/6
f 5/70/1 6/1/1 1/3/1
f 6/11/2 7/4/2 2/6/2
f 7/1/3 8/7/3 3/2/3
f 8/6/4 5/9/4 4/11/4
f 1/71/5 2/12/5 4/14/5
f 8/72/6 7/15/6 5/17/6
f 13/67/3 14/18/3 9/20/3
f 14/39/7 15/21/7 10/23/7
f 15/66/1 16/24/1 11/26/1
f 16/23/8 13/22/8 12/28/8
f 9/68/9 10/29/9 12/31/9
f 16/73/10 15/32/10 13/34/10
f 21/45/44 22/35/44 17/37/44
f 22/44/12 23/38/12 18/39/12
f 19/69/45 23/40/45 20/42/45
f 24/74/14 21/43/14 20/44/14
f 17/35/15 18/45/15 20/47/15
f 21/46/16 24/48/16 22/47/16
f 29/75/1 30/50/1 25/52/1
f 30/76/2 31/53/2 26/55/2
f 31/77/3 32/56/3 27/58/3
f 32/78/4 29/54/4 28/59/4
f 25/79/5 26/60/5 28/62/5
f 32/80/6 31/63/6 29/65/6
f 37/70/1 38/1/1 33/3/1
f 38/11/2 39/4/2 34/6/2
f 39/1/3 40/7/3 35/2/3
f 40/6/4 37/9/4 36/11/4
f 33/71/5 34/12/5 36/14/5
f 40/72/6 39/15/6 37/17/6
f 45/67/3 46/18/3 41/20/3
f 46/39/7 47/21/7 42/23/7
f 43/26/1 47/66/1 44/25/1
f 48/23/8 45/22/8 44/28/8
f 41/68/17 42/29/17 44/31/17
f 48/73/18 47/32/18 45/34/18
f 53/45/3 54/35/3 49/37/3
f 54/44/12 55/38/12 50/39/12
f 51/69/1 55/40/1 52/42/1
f 56/74/19 53/43/19 52/44/19
f 49/35/20 50/45/20 52/47/20
f 56/48/21 55/49/21 53/46/21
f 61/75/1 62/50/1 57/52/1
f 62/76/2 63/53/2 58/55/2
f 63/77/3 64/56/3 59/58/3
f 64/78/4 61/54/4 60/59/4
f 57/79/5 58/60/5 60/62/5
f 64/80/6 63/63/6 61/65/6
f 69/70/1 70/1/1 65/3/1
f 70/11/2 71/4/2 66/6/2
f 71/1/3 72/7/3 67/2/3
f 72/6/4 69/9/4 68/11/4
f 65/71/5 66/12/5 68/14/5
f 72/72/6 71/15/6 69/17/6
f 73/20/46 77/67/46 74/19/46
f 78/39/23 79/21/23 74/23/23
f 79/66/47 80/24/47 75/26/47
f 80/23/8 77/22/8 76/28/8
f 76/31/48 73/68/48 75/30/48
f 80/73/49 79/32/49 77/34/49
f 85/45/3 86/35/3 81/37/3
f 86/44/12 87/38/12 82/39/12
f 87/40/1 88/41/1 83/69/1
f 88/74/19 85/43/19 84/44/19
f 81/35/27 82/45/27 84/47/27
f 88/48/28 87/49/28 85/46/28
f 93/75/1 94/50/1 89/52/1
f 94/76/2 95/53/2 90/55/2
f 95/77/3 96/56/3 91/58/3
f 96/78/4 93/54/4 92/59/4
f 89/79/5 90/60/5 92/62/5
f 96/80/6 95/63/6 93/65/6
f 101/70/1 102/1/1 97/3/1
f 102/11/2 103/4/2 98/6/2
f 103/1/3 104/7/3 99/2/3
f 104/6/4 101/9/4 100/11/4
f 97/71/5 98/12/5 100/14/5
f 104/72/6 103/15/6 101/17/6
f 105/20/3 109/67/3 106/19/3
f 110/39/7 111/21/7 106/23/7
f 111/66/1 112/24/1 107/26/1
f 112/23/8 109/22/8 108/28/8
f 105/68/29 106/29/29 108/31/29
f 112/73/30 111/32/30 109/34/30
f 117/45/3 118/35/3 113/37/3
f 118/44/12 119/38/12 114/39/12
f 115/69/1 119/40/1 116/42/1
f 120/74/19 117/43/19 116/44/19
f 113/35/31 114/45/31 116/47/31
f 120/48/32 119/49/32 117/46/32
f 125/75/1 126/50/1 121/52/1
f 126/76/2 127/53/2 122/55/2
f 127/77/3 128/56/3 123/58/3
f 128/78/4 125/54/4 124/59/4
f 121/79/5 122/60/5 124/62/5
f 128/80/6 127/63/6 125/65/6
f 133/70/1 134/1/1 129/3/1
f 134/11/2 135/4/2 130/6/2
f 135/1/3 136/7/3 131/2/3
f 136/6/4 133/9/4 132/11/4
f 129/71/5 130/12/5 132/14/5
f 136/72/6 135/15/6 133/17/6
f 141/67/3 142/18/3 137/20/3
f 142/39/7 143/21/7 138/23/7
f 143/66/1 144/24/1 139/26/1
f 144/23/8 141/22/8 140/28/8
f 137/68/9 138/29/9 140/31/9
f 144/73/10 143/32/10 141/34/10
f 145/37/50 149/45/50 146/36/50
f 146/39/34 150/44/34 147/21/34
f 151/40/51 152/41/51 147/69/51
f 152/74/14 149/43/14 148/44/14
f 148/47/52 145/35/52 147/46/52
f 152/48/53 151/49/53 149/46/53
f 157/75/1 158/50/1 153/52/1
f 158/76/2 159/53/2 154/55/2
f 159/77/3 160/56/3 155/58/3
f 160/78/4 157/54/4 156/59/4
f 153/79/5 154/60/5 156/62/5
f 160/80/6 159/63/6 157/65/6
f 165/70/1 166/1/1 161/3/1
f 166/11/2 167/4/2 162/6/2
f 167/1/3 168/7/3 163/2/3
f 168/6/4 165/9/4 164/11/4
f 161/71/5 162/12/5 164/14/5
f 168/72/6 167/15/6 165/17/6
f 173/67/3 174/18/3 169/20/3
f 174/39/7 175/21/7 170/23/7
f 171/26/1 175/66/1 172/25/1
f 176/23/8 173/22/8 172/28/8
f 169/68/17 170/29/17 172/31/17
f 176/73/18 175/32/18 173/34/18
f 181/45/3 182/35/3 177/37/3
f 182/44/12 183/38/12 178/39/12
f 179/69/1 183/40/1 180/42/1
f 184/74/19 181/43/19 180/44/19
f 180/47/20 177/35/20 179/46/20
f 184/48/21 183/49/21 181/46/21
f 189/75/1 190/50/1 185/52/1
f 190/76/2 191/53/2 186/55/2
f 191/77/3 192/56/3 187/58/3
f 192/78/4 189/54/4 188/59/4
f 185/79/5 186/60/5 188/62/5
f 192/80/6 191/63/6 189/65/6
f 197/70/1 198/1/1 193/3/1
f 198/11/2 199/4/2 194/6/2
f 199/1/3 200/7/3 195/2/3
f 200/6/4 197/9/4 196/11/4
f 193/71/5 194/12/5 196/14/5
f 200/72/6 199/15/6 197/17/6
f 205/67/54 206/18/54 201/20/54
f 206/39/39 207/21/39 202/23/39
f 203/26/55 207/66/55 204/25/55
f 204/28/41 208/23/41 201/27/41
f 204/31/56 201/68/56 203/30/56
f 208/73/57 207/32/57 205/34/57
f 213/45/3 214/35/3 209/37/3
f 214/44/12 215/38/12 210/39/12
f 215/40/1 216/41/1 211/69/1
f 216/74/19 213/43/19 212/44/19
f 209/35/27 210/45/27 212/47/27
f 216/48/28 215/49/28 213/46/28
f 221/75/1 222/50/1 217/52/1
f 222/76/2 223/53/2 218/55/2
f 223/77/3 224/56/3 219/58/3
f 224/78/4 221/54/4 220/59/4
f 217/79/5 218/60/5 220/62/5
f 224/80/6 223/63/6 221/65/6
f 229/70/1 230/1/1 225/3/1
f 230/11/2 231/4/2 226/6/2
f 231/1/3 232/7/3 227/2/3
f 232/6/4 229/9/4 228/11/4
f 225/71/5 226/12/5 228/14/5
f 232/72/6 231/15/6 229/17/6
f 237/67/3 238/18/3 233/20/3
f 238/39/7 239/21/7 234/23/7
f 239/66/1 240/24/1 235/26/1
f 240/23/8 237/22/8 236/28/8
f 233/68/9 234/29/9 236/31/9
f 240/73/10 239/32/10 237/34/10
f 241/37/3 245/45/3 242/36/3
f 246/44/12 247/38/12 242/39/12
f 247/40/1 248/41/1 243/69/1
f 248/74/19 245/43/19 244/44/19
f 241/35/27 242/45/27 244/47/27
f 248/48/28 247/49/28 245/46/28
f 253/75/1 254/50/1 249/52/1
f 254/76/2 255/53/2 250/55/2
f 255/77/3 256/56/3 251/58/3
f 256/78/4 253/54/4 252/59/4
f 249/79/5 250/60/5 252/62/5
f 256/80/6 255/63/6 253/65/6
